<svg width="77" height="51" viewBox="0 0 77 51" xmlns="http://www.w3.org/2000/svg"><title>Shape</title><path d="M75.315 1.371C73.23-.713 2.812-.182 1.26 1.371c-1.678 1.678-1.684 46.033 0 47.713.558.56 12.15.896 26.007 1.012l3.068-8.486s1.987-8.04 7.92-8.04c6.257 0 8.99 9.675 8.99 9.675l2.555 6.848c13.633-.116 24.957-.453 25.514-1.008 1.553-1.554 2-45.713 0-47.714zm-57.1 33.26c-6.062 0-10.977-4.915-10.977-10.98 0-6.063 4.915-10.978 10.978-10.978s10.979 4.915 10.979 10.978c0 6.065-4.916 10.98-10.98 10.98zm39.763 0c-6.063 0-10.98-4.915-10.98-10.98 0-6.063 4.917-10.978 10.98-10.978 6.062 0 10.978 4.915 10.978 10.978 0 6.065-4.916 10.98-10.978 10.98z" fill="#222" fill-rule="evenodd"/></svg>